<svg width="281.904" height="54.336" viewBox="0 0 281.904 54.336" xmlns="http://www.w3.org/2000/svg"><g id="svgGroup" stroke-linecap="round" fill-rule="evenodd" font-size="9pt" stroke="#31A1A8" stroke-width="0.25mm" fill="#31A1A8" style="stroke:#31A1A8;stroke-width:0.25mm;fill:#31A1A8"><path d="M 266.592 27.504 L 267.504 26.016 A 16.972 16.972 0 0 0 269.169 25.25 Q 270.614 24.482 271.512 23.568 Q 272.679 22.381 272.85 21.403 A 1.912 1.912 0 0 0 272.88 21.072 Q 272.88 20.592 272.616 20.328 A 0.886 0.886 0 0 0 272.113 20.079 A 1.241 1.241 0 0 0 271.92 20.064 A 2.086 2.086 0 0 0 271.18 20.215 Q 270.363 20.526 269.328 21.48 Q 268.152 22.564 266.273 24.563 A 158.923 158.923 0 0 0 265.056 25.872 Q 265.014 25.914 264.205 26.833 A 980.714 980.714 0 0 0 263.952 27.12 A 54.499 54.499 0 0 1 263.653 31.15 A 43.395 43.395 0 0 1 263.232 34.032 Q 262.794 36.442 262.106 37.018 A 0.703 0.703 0 0 1 261.648 37.2 A 4.361 4.361 0 0 1 260.631 37.07 Q 260.173 36.96 259.671 36.757 A 9.844 9.844 0 0 1 258.864 36.384 A 11.462 11.462 0 0 1 257.022 35.21 A 9.76 9.76 0 0 1 256.152 34.44 A 6.898 6.898 0 0 1 255.66 33.898 Q 255.024 33.109 255.024 32.496 Q 255.024 31.92 255.408 30.504 Q 255.792 29.088 256.32 27.36 A 175.363 175.363 0 0 0 257.802 22.232 Q 258.441 19.879 258.935 17.757 A 100.315 100.315 0 0 0 259.248 16.368 A 90.526 90.526 0 0 0 260.201 11.159 A 98.731 98.731 0 0 0 260.256 10.8 Q 260.928 6.96 261.408 4.896 A 18.697 18.697 0 0 1 261.86 3.27 Q 262.202 2.235 262.632 1.416 Q 263.376 0 264.48 0 Q 265.296 0 266.904 0.984 A 14.873 14.873 0 0 1 269.603 3.082 A 13.882 13.882 0 0 1 269.76 3.24 A 8.696 8.696 0 0 1 270.276 3.811 Q 270.756 4.395 270.921 4.865 A 1.399 1.399 0 0 1 271.008 5.328 A 2.471 2.471 0 0 1 270.912 5.987 Q 270.788 6.435 270.504 6.936 Q 270.118 7.616 269.352 8.732 A 66.518 66.518 0 0 1 268.848 9.456 Q 268.608 9.792 267.96 10.8 A 19.541 19.541 0 0 0 267.59 11.397 Q 267.246 11.977 267.051 12.418 A 5.615 5.615 0 0 0 267.024 12.48 A 32.138 32.138 0 0 0 266.595 13.58 Q 266.396 14.114 266.186 14.727 A 71.783 71.783 0 0 0 265.752 16.032 Q 265.056 18.192 264.576 20.256 L 265.44 20.736 Q 268.944 16.08 271.008 13.752 Q 273.072 11.424 274.656 11.424 A 2.629 2.629 0 0 1 275.725 11.664 Q 276.32 11.927 276.936 12.48 Q 278.112 13.536 278.88 15 Q 279.63 16.43 279.648 17.425 A 2.69 2.69 0 0 1 279.648 17.472 A 7.605 7.605 0 0 1 278.905 20.691 Q 278.428 21.72 277.647 22.746 A 13.826 13.826 0 0 1 277.512 22.92 A 21.498 21.498 0 0 1 274.042 26.388 A 26.281 26.281 0 0 1 272.112 27.792 Q 273.062 28.694 273.729 29.173 A 7.374 7.374 0 0 0 273.744 29.184 Q 274.416 29.664 275.184 29.952 Q 276.672 29.472 278.928 28.224 Q 280.368 29.088 281.136 30.24 A 4.997 4.997 0 0 1 281.647 31.212 A 3.681 3.681 0 0 1 281.904 32.544 Q 281.904 34.56 280.08 35.88 Q 278.256 37.2 275.52 37.2 Q 273.264 37.2 271.368 35.88 A 9.928 9.928 0 0 1 268.731 33.133 A 11.988 11.988 0 0 1 268.248 32.328 Q 267.024 30.096 266.592 27.504 Z M 108.24 28.608 L 107.04 27.936 A 80.895 80.895 0 0 1 105.614 30.454 Q 103.867 33.405 102.504 34.992 A 7.424 7.424 0 0 1 101.141 36.249 A 5.013 5.013 0 0 1 98.208 37.2 Q 97.184 37.2 96.014 36.57 A 8.077 8.077 0 0 1 95.496 36.264 A 10.927 10.927 0 0 1 93.663 34.805 A 9.618 9.618 0 0 1 93.024 34.104 A 8.081 8.081 0 0 1 92.584 33.522 Q 92.179 32.928 92.063 32.464 A 1.45 1.45 0 0 1 92.016 32.112 A 3.687 3.687 0 0 1 92.052 31.627 Q 92.144 30.939 92.472 29.904 Q 92.928 28.464 93.432 27.024 A 414.704 414.704 0 0 1 93.608 26.521 Q 93.95 25.55 94.071 25.224 A 11.249 11.249 0 0 1 94.08 25.2 Q 94.704 23.52 95.208 22.032 A 23.067 23.067 0 0 0 95.404 21.427 Q 95.671 20.562 95.707 20.136 A 1.454 1.454 0 0 0 95.712 20.016 A 0.782 0.782 0 0 0 95.642 19.705 Q 95.541 19.471 95.293 19.214 A 2.955 2.955 0 0 0 95.256 19.176 A 6.794 6.794 0 0 0 94.926 18.87 Q 94.515 18.51 93.888 18.048 Q 93.08 17.423 92.595 16.995 A 9.535 9.535 0 0 1 92.328 16.752 A 2.021 2.021 0 0 1 92.054 16.436 Q 91.908 16.222 91.854 16 A 1.096 1.096 0 0 1 91.824 15.744 A 2.72 2.72 0 0 1 91.956 14.941 Q 92.175 14.232 92.76 13.392 Q 93.696 12.048 94.968 11.088 A 7.333 7.333 0 0 1 95.646 10.629 Q 96.379 10.195 96.971 10.137 A 1.842 1.842 0 0 1 97.152 10.128 Q 97.864 10.128 98.73 10.582 A 7.234 7.234 0 0 1 99.48 11.04 Q 100.8 11.952 101.784 13.128 A 9.288 9.288 0 0 1 102.167 13.616 Q 102.737 14.398 102.766 14.877 A 0.835 0.835 0 0 1 102.768 14.928 A 21.968 21.968 0 0 1 102.626 17.329 Q 102.486 18.6 102.207 20.037 A 46.569 46.569 0 0 1 101.76 22.08 Q 100.752 26.256 99.168 30.384 Q 102.336 27.744 104.832 24.528 A 35.991 35.991 0 0 0 106.372 22.396 Q 107.1 21.302 107.627 20.298 A 15.868 15.868 0 0 0 108.336 18.768 Q 108.432 15.648 109.08 13.536 Q 109.638 11.716 110.357 11.464 A 0.706 0.706 0 0 1 110.592 11.424 Q 111.599 11.424 112.777 12.002 A 8.697 8.697 0 0 1 113.352 12.312 A 11.301 11.301 0 0 1 115.14 13.602 A 9.731 9.731 0 0 1 115.92 14.376 Q 116.961 15.536 116.976 16.205 A 0.869 0.869 0 0 1 116.976 16.224 Q 116.932 17.157 116.189 19.589 A 60.766 60.766 0 0 1 116.064 19.992 Q 115.291 22.461 113.981 26.178 A 358.416 358.416 0 0 1 113.664 27.072 Q 112.752 29.76 112.608 30.144 A 23.663 23.663 0 0 0 114.168 29.378 A 19.156 19.156 0 0 0 115.128 28.824 Q 116.252 28.131 117.494 27.08 A 27.309 27.309 0 0 0 117.504 27.072 Q 119.146 27.632 120.135 28.525 A 4.81 4.81 0 0 1 120.648 29.064 Q 121.68 30.336 121.68 31.968 A 1.629 1.629 0 0 1 121.68 31.995 Q 121.662 33.041 120.302 34.146 A 8.327 8.327 0 0 1 120.048 34.344 A 13.461 13.461 0 0 1 117.89 35.654 A 17.278 17.278 0 0 1 116.16 36.384 A 17.488 17.488 0 0 1 114.688 36.849 Q 113.36 37.2 112.32 37.2 Q 111.332 37.2 109.975 36.393 A 10.01 10.01 0 0 1 109.92 36.36 A 13.051 13.051 0 0 1 107.723 34.706 A 12.034 12.034 0 0 1 107.448 34.44 Q 106.486 33.478 106.381 32.954 A 0.621 0.621 0 0 1 106.368 32.832 A 2 2 0 0 1 106.414 32.422 Q 106.497 32.031 106.724 31.544 A 6.212 6.212 0 0 1 106.728 31.536 Q 107.088 30.768 107.544 29.88 Q 107.983 29.025 108.222 28.637 A 5.213 5.213 0 0 1 108.24 28.608 Z M 148.886 26.986 A 14.873 14.873 0 0 0 147.648 26.4 A 16 16 0 0 1 147.4 26.642 Q 146.518 27.487 145.415 28.291 A 26.583 26.583 0 0 1 143.28 29.688 A 20.478 20.478 0 0 1 142.492 30.131 Q 140.396 31.248 139.056 31.248 A 2.773 2.773 0 0 1 137.756 30.926 A 3.603 3.603 0 0 1 136.944 30.336 Q 141.648 26.304 145.992 21.696 A 56.513 56.513 0 0 0 147.46 20.082 Q 150.336 16.784 150.336 15.456 A 5.399 5.399 0 0 0 150.271 14.598 A 3.67 3.67 0 0 0 148.968 12.264 A 4.27 4.27 0 0 0 148.221 11.771 Q 147.547 11.42 146.696 11.263 A 8.252 8.252 0 0 0 145.2 11.136 A 10.468 10.468 0 0 0 144.403 11.168 A 13.591 13.591 0 0 0 143.424 11.28 Q 142.44 12.658 141.455 13.229 A 2.753 2.753 0 0 1 140.064 13.632 A 1.588 1.588 0 0 1 139.851 13.617 Q 139.459 13.564 139.008 13.32 A 4.998 4.998 0 0 1 138.955 13.291 Q 138.393 12.977 137.568 12.336 Q 136.685 11.709 135.903 11.251 A 14.172 14.172 0 0 0 134.88 10.704 Q 133.68 10.128 132.288 10.128 Q 131.255 10.128 130.205 10.557 A 7.842 7.842 0 0 0 128.784 11.328 Q 127.008 12.528 125.856 14.208 A 9.209 9.209 0 0 0 125.292 15.136 Q 125.025 15.645 124.88 16.113 A 3.607 3.607 0 0 0 124.704 17.184 A 3.165 3.165 0 0 0 125.618 19.409 A 5.221 5.221 0 0 0 126.552 20.184 Q 128.4 21.408 130.896 21.408 Q 131.416 21.408 131.872 21.357 A 6.101 6.101 0 0 0 132.672 21.216 A 31.753 31.753 0 0 1 133.285 19.66 Q 134.246 17.413 135.085 16.7 A 1.186 1.186 0 0 1 135.84 16.368 A 2.369 2.369 0 0 1 135.915 16.369 Q 136.178 16.377 136.464 16.444 A 3.976 3.976 0 0 1 136.992 16.608 Q 138.336 16.944 139.056 16.944 A 9.344 9.344 0 0 0 139.099 16.944 Q 139.402 16.942 139.625 16.921 A 2.855 2.855 0 0 0 139.824 16.896 A 36.809 36.809 0 0 1 139.312 17.722 A 32.603 32.603 0 0 1 133.488 24.6 A 29.699 29.699 0 0 1 132.832 25.166 Q 129.351 28.08 124.272 30.576 A 8.254 8.254 0 0 0 124.257 30.63 Q 124.032 31.463 124.032 32.16 A 5.907 5.907 0 0 0 124.033 32.291 A 4.731 4.731 0 0 0 125.52 35.712 A 5.071 5.071 0 0 0 127.537 36.914 A 6.425 6.425 0 0 0 129.36 37.2 A 124.948 124.948 0 0 1 129.77 36.91 Q 130.996 36.045 131.922 35.44 A 34.693 34.693 0 0 1 132.816 34.872 A 9.799 9.799 0 0 1 133.127 34.689 Q 133.816 34.303 134.356 34.161 A 2.273 2.273 0 0 1 134.928 34.08 A 0.965 0.965 0 0 1 135.015 34.084 Q 135.263 34.107 135.592 34.254 A 4.034 4.034 0 0 1 135.912 34.416 Q 136.512 34.752 137.184 35.184 A 22.853 22.853 0 0 0 137.558 35.445 Q 138.112 35.825 138.628 36.127 A 12.598 12.598 0 0 0 139.656 36.672 Q 140.784 37.2 142.08 37.2 Q 143.187 37.2 144.4 36.911 A 14.313 14.313 0 0 0 146.352 36.288 A 15.05 15.05 0 0 0 147.979 35.533 A 11.809 11.809 0 0 0 150.24 33.96 Q 151.106 33.186 151.499 32.418 A 2.761 2.761 0 0 0 151.824 31.152 A 5.047 5.047 0 0 0 151.782 30.494 A 3.705 3.705 0 0 0 150.816 28.392 Q 150.123 27.65 148.886 26.986 Z M 196.368 30.816 L 195.312 29.616 A 49.338 49.338 0 0 1 190.93 32.707 A 43.022 43.022 0 0 1 189.432 33.6 Q 186.795 35.101 184.981 35.261 A 4.793 4.793 0 0 1 184.56 35.28 A 3.445 3.445 0 0 1 183.534 35.113 Q 182.868 34.906 182.136 34.44 Q 180.816 33.6 179.904 32.376 A 5.993 5.993 0 0 1 179.423 31.627 Q 179.194 31.2 179.087 30.794 A 2.722 2.722 0 0 1 178.992 30.096 Q 178.992 26.361 180.405 21.972 A 38.001 38.001 0 0 1 180.6 21.384 Q 182.208 16.656 184.968 13.392 Q 187.046 10.934 189.437 10.327 A 6.487 6.487 0 0 1 191.04 10.128 Q 192.211 10.128 193.343 11.088 A 6.201 6.201 0 0 1 193.584 11.304 A 9.429 9.429 0 0 1 195.314 13.476 A 8.794 8.794 0 0 1 195.552 13.92 A 6.634 6.634 0 0 1 195.715 13.185 Q 195.901 12.537 196.2 12.096 A 2.575 2.575 0 0 1 196.429 11.803 Q 196.776 11.424 197.136 11.424 A 1.704 1.704 0 0 1 197.573 11.49 Q 198.244 11.671 199.321 12.346 A 15.966 15.966 0 0 1 199.344 12.36 A 16.762 16.762 0 0 1 201.957 14.376 A 15.609 15.609 0 0 1 202.032 14.448 A 10.361 10.361 0 0 1 202.485 14.908 Q 203.232 15.722 203.232 16.176 A 10.543 10.543 0 0 1 203.182 17.074 Q 202.984 19.294 201.992 24.927 A 373.716 373.716 0 0 1 201.816 25.92 Q 200.4 33.84 198.744 41.328 A 207.654 207.654 0 0 1 198.156 43.915 Q 197.02 48.756 196.435 49.895 A 2.113 2.113 0 0 1 196.368 50.016 Q 195.264 51.744 192.936 53.04 A 11.132 11.132 0 0 1 190.922 53.926 A 8.235 8.235 0 0 1 188.4 54.336 A 7.43 7.43 0 0 1 185.736 53.824 A 9.952 9.952 0 0 1 184.224 53.088 Q 182.112 51.84 180.768 50.016 A 9.331 9.331 0 0 1 180.066 48.922 Q 179.424 47.733 179.424 46.704 Q 179.424 45.128 181.12 43.074 A 15.305 15.305 0 0 1 181.464 42.672 A 32.294 32.294 0 0 1 183.882 40.231 A 42.806 42.806 0 0 1 186.432 38.088 Q 189.289 35.863 193.701 32.747 A 350.525 350.525 0 0 1 193.92 32.592 Q 194.736 31.968 196.368 30.816 Z M 55.824 30.864 A 9.911 9.911 0 0 0 60.945 29.13 Q 62.303 28.229 63.587 26.863 A 19.936 19.936 0 0 0 64.176 26.208 A 8.902 8.902 0 0 1 65.963 26.722 A 6.366 6.366 0 0 1 67.944 27.984 A 4.467 4.467 0 0 1 69.358 31.232 A 5.897 5.897 0 0 1 69.36 31.392 Q 69.36 32.605 68.227 33.723 A 6.874 6.874 0 0 1 67.656 34.224 A 11.589 11.589 0 0 1 65.608 35.503 Q 64.601 36.002 63.408 36.384 A 17.352 17.352 0 0 1 60.455 37.065 A 14.362 14.362 0 0 1 58.512 37.2 A 7.912 7.912 0 0 1 55.935 36.748 Q 54.979 36.42 53.994 35.854 A 13.881 13.881 0 0 1 53.712 35.688 A 14.418 14.418 0 0 1 50.115 32.641 A 13.572 13.572 0 0 1 49.584 31.968 A 10.426 10.426 0 0 1 48.672 30.512 Q 47.952 29.099 47.952 27.792 A 18.386 18.386 0 0 1 48.57 23.162 A 24.143 24.143 0 0 1 49.704 19.848 A 19.754 19.754 0 0 1 52.844 14.686 A 18.042 18.042 0 0 1 54.576 12.912 A 11.193 11.193 0 0 1 57.833 10.846 A 9.914 9.914 0 0 1 61.584 10.128 Q 63.984 10.128 66.144 10.992 A 10.681 10.681 0 0 1 67.979 11.929 A 8.02 8.02 0 0 1 69.6 13.296 A 5.908 5.908 0 0 1 70.364 14.343 Q 70.896 15.288 70.896 16.272 Q 70.896 17.76 69.6 18.936 A 4.428 4.428 0 0 1 67.461 19.991 A 6.359 6.359 0 0 1 66.192 20.112 Q 65.52 20.112 64.8 19.968 A 18.355 18.355 0 0 0 64.066 18.382 Q 63.173 16.684 62.16 15.84 A 12.798 12.798 0 0 0 57.57 21.144 A 15.504 15.504 0 0 0 57.36 21.6 Q 55.728 25.296 55.728 29.136 Q 55.728 29.577 55.784 30.356 A 46.516 46.516 0 0 0 55.824 30.864 Z M 30.975 36.748 A 7.912 7.912 0 0 0 33.552 37.2 A 14.344 14.344 0 0 0 35.775 37.021 A 18.41 18.41 0 0 0 38.448 36.384 A 16.231 16.231 0 0 0 40.625 35.531 A 11.913 11.913 0 0 0 42.792 34.2 A 7.047 7.047 0 0 0 43.512 33.56 Q 43.914 33.146 44.159 32.725 A 2.62 2.62 0 0 0 44.544 31.392 A 5.879 5.879 0 0 0 44.525 30.915 A 4.621 4.621 0 0 0 43.584 28.416 A 4.383 4.383 0 0 0 43.51 28.322 Q 42.941 27.624 42.075 27.145 A 6.948 6.948 0 0 0 40.752 26.592 A 46.545 46.545 0 0 1 39.978 27.115 Q 38.829 27.874 37.757 28.479 A 26.24 26.24 0 0 1 35.616 29.568 A 17.13 17.13 0 0 1 35.175 29.759 A 15.105 15.105 0 0 1 30.864 30.864 Q 30.768 30.144 30.768 28.704 A 46.091 46.091 0 0 1 30.771 28.196 Q 30.779 27.417 30.816 26.976 A 32.786 32.786 0 0 0 34.295 26.269 A 25.457 25.457 0 0 0 38.256 24.888 Q 40.041 24.087 41.395 23.143 A 12.317 12.317 0 0 0 43.344 21.48 A 9.658 9.658 0 0 0 43.679 21.104 Q 44.248 20.431 44.599 19.75 A 4.82 4.82 0 0 0 45.168 17.52 A 4.516 4.516 0 0 0 45.144 17.056 Q 45.062 16.26 44.699 15.443 A 7.799 7.799 0 0 0 43.968 14.16 A 8.463 8.463 0 0 0 42.586 12.621 A 10.541 10.541 0 0 0 40.632 11.28 Q 38.496 10.128 35.856 10.128 A 8.632 8.632 0 0 0 31.839 11.099 A 10.66 10.66 0 0 0 29.232 13.032 A 19.061 19.061 0 0 0 27.447 15.075 A 21.356 21.356 0 0 0 24.648 20.112 Q 23.814 22.216 23.4 24.15 A 17.402 17.402 0 0 0 22.992 27.792 Q 22.992 29.099 23.712 30.512 A 10.426 10.426 0 0 0 24.624 31.968 A 13.572 13.572 0 0 0 25.155 32.641 A 14.418 14.418 0 0 0 28.752 35.688 A 13.881 13.881 0 0 0 29.034 35.854 Q 30.019 36.42 30.975 36.748 Z M 162.111 36.748 A 7.912 7.912 0 0 0 164.688 37.2 A 14.344 14.344 0 0 0 166.911 37.021 A 18.41 18.41 0 0 0 169.584 36.384 A 16.231 16.231 0 0 0 171.761 35.531 A 11.913 11.913 0 0 0 173.928 34.2 A 7.047 7.047 0 0 0 174.648 33.56 Q 175.05 33.146 175.295 32.725 A 2.62 2.62 0 0 0 175.68 31.392 A 5.879 5.879 0 0 0 175.661 30.915 A 4.621 4.621 0 0 0 174.72 28.416 A 4.383 4.383 0 0 0 174.646 28.322 Q 174.077 27.624 173.211 27.145 A 6.948 6.948 0 0 0 171.888 26.592 A 46.545 46.545 0 0 1 171.114 27.115 Q 169.965 27.874 168.893 28.479 A 26.24 26.24 0 0 1 166.752 29.568 A 17.13 17.13 0 0 1 166.311 29.759 A 15.105 15.105 0 0 1 162 30.864 Q 161.904 30.144 161.904 28.704 A 46.091 46.091 0 0 1 161.907 28.196 Q 161.915 27.417 161.952 26.976 A 32.786 32.786 0 0 0 165.431 26.269 A 25.457 25.457 0 0 0 169.392 24.888 Q 171.177 24.087 172.531 23.143 A 12.317 12.317 0 0 0 174.48 21.48 A 9.658 9.658 0 0 0 174.815 21.104 Q 175.384 20.431 175.735 19.75 A 4.82 4.82 0 0 0 176.304 17.52 A 4.516 4.516 0 0 0 176.28 17.056 Q 176.198 16.26 175.835 15.443 A 7.799 7.799 0 0 0 175.104 14.16 A 8.463 8.463 0 0 0 173.722 12.621 A 10.541 10.541 0 0 0 171.768 11.28 Q 169.632 10.128 166.992 10.128 A 8.632 8.632 0 0 0 162.975 11.099 A 10.66 10.66 0 0 0 160.368 13.032 A 19.061 19.061 0 0 0 158.583 15.075 A 21.356 21.356 0 0 0 155.784 20.112 Q 154.95 22.216 154.536 24.15 A 17.402 17.402 0 0 0 154.128 27.792 Q 154.128 29.099 154.848 30.512 A 10.426 10.426 0 0 0 155.76 31.968 A 13.572 13.572 0 0 0 156.291 32.641 A 14.418 14.418 0 0 0 159.888 35.688 A 13.881 13.881 0 0 0 160.17 35.854 Q 161.155 36.42 162.111 36.748 Z M 213.327 36.748 A 7.912 7.912 0 0 0 215.904 37.2 A 14.344 14.344 0 0 0 218.127 37.021 A 18.41 18.41 0 0 0 220.8 36.384 A 16.231 16.231 0 0 0 222.977 35.531 A 11.913 11.913 0 0 0 225.144 34.2 A 7.047 7.047 0 0 0 225.864 33.56 Q 226.266 33.146 226.511 32.725 A 2.62 2.62 0 0 0 226.896 31.392 A 5.879 5.879 0 0 0 226.877 30.915 A 4.621 4.621 0 0 0 225.936 28.416 A 4.383 4.383 0 0 0 225.862 28.322 Q 225.293 27.624 224.427 27.145 A 6.948 6.948 0 0 0 223.104 26.592 A 46.545 46.545 0 0 1 222.33 27.115 Q 221.181 27.874 220.109 28.479 A 26.24 26.24 0 0 1 217.968 29.568 A 17.13 17.13 0 0 1 217.527 29.759 A 15.105 15.105 0 0 1 213.216 30.864 Q 213.12 30.144 213.12 28.704 A 46.091 46.091 0 0 1 213.123 28.196 Q 213.131 27.417 213.168 26.976 A 32.786 32.786 0 0 0 216.647 26.269 A 25.457 25.457 0 0 0 220.608 24.888 Q 222.393 24.087 223.747 23.143 A 12.317 12.317 0 0 0 225.696 21.48 A 9.658 9.658 0 0 0 226.031 21.104 Q 226.6 20.431 226.951 19.75 A 4.82 4.82 0 0 0 227.52 17.52 A 4.516 4.516 0 0 0 227.496 17.056 Q 227.414 16.26 227.051 15.443 A 7.799 7.799 0 0 0 226.32 14.16 A 8.463 8.463 0 0 0 224.938 12.621 A 10.541 10.541 0 0 0 222.984 11.28 Q 220.848 10.128 218.208 10.128 A 8.632 8.632 0 0 0 214.191 11.099 A 10.66 10.66 0 0 0 211.584 13.032 A 19.061 19.061 0 0 0 209.799 15.075 A 21.356 21.356 0 0 0 207 20.112 Q 206.166 22.216 205.752 24.15 A 17.402 17.402 0 0 0 205.344 27.792 Q 205.344 29.099 206.064 30.512 A 10.426 10.426 0 0 0 206.976 31.968 A 13.572 13.572 0 0 0 207.507 32.641 A 14.418 14.418 0 0 0 211.104 35.688 A 13.881 13.881 0 0 0 211.386 35.854 Q 212.371 36.42 213.327 36.748 Z M 238.287 36.748 A 7.912 7.912 0 0 0 240.864 37.2 A 14.344 14.344 0 0 0 243.087 37.021 A 18.41 18.41 0 0 0 245.76 36.384 A 16.231 16.231 0 0 0 247.937 35.531 A 11.913 11.913 0 0 0 250.104 34.2 A 7.047 7.047 0 0 0 250.824 33.56 Q 251.226 33.146 251.471 32.725 A 2.62 2.62 0 0 0 251.856 31.392 A 5.879 5.879 0 0 0 251.837 30.915 A 4.621 4.621 0 0 0 250.896 28.416 A 4.383 4.383 0 0 0 250.822 28.322 Q 250.253 27.624 249.387 27.145 A 6.948 6.948 0 0 0 248.064 26.592 A 46.545 46.545 0 0 1 247.29 27.115 Q 246.141 27.874 245.069 28.479 A 26.24 26.24 0 0 1 242.928 29.568 A 17.13 17.13 0 0 1 242.487 29.759 A 15.105 15.105 0 0 1 238.176 30.864 Q 238.08 30.144 238.08 28.704 A 46.091 46.091 0 0 1 238.083 28.196 Q 238.091 27.417 238.128 26.976 A 32.786 32.786 0 0 0 241.607 26.269 A 25.457 25.457 0 0 0 245.568 24.888 Q 247.353 24.087 248.707 23.143 A 12.317 12.317 0 0 0 250.656 21.48 A 9.658 9.658 0 0 0 250.991 21.104 Q 251.56 20.431 251.911 19.75 A 4.82 4.82 0 0 0 252.48 17.52 A 4.516 4.516 0 0 0 252.456 17.056 Q 252.374 16.26 252.011 15.443 A 7.799 7.799 0 0 0 251.28 14.16 A 8.463 8.463 0 0 0 249.898 12.621 A 10.541 10.541 0 0 0 247.944 11.28 Q 245.808 10.128 243.168 10.128 A 8.632 8.632 0 0 0 239.151 11.099 A 10.66 10.66 0 0 0 236.544 13.032 A 19.061 19.061 0 0 0 234.759 15.075 A 21.356 21.356 0 0 0 231.96 20.112 Q 231.126 22.216 230.712 24.15 A 17.402 17.402 0 0 0 230.304 27.792 Q 230.304 29.099 231.024 30.512 A 10.426 10.426 0 0 0 231.936 31.968 A 13.572 13.572 0 0 0 232.467 32.641 A 14.418 14.418 0 0 0 236.064 35.688 A 13.881 13.881 0 0 0 236.346 35.854 Q 237.331 36.42 238.287 36.748 Z M 75.936 15.12 L 76.416 12.432 Q 77.318 7.451 78.085 4.199 A 76.555 76.555 0 0 1 78.264 3.456 Q 79.084 0.128 79.928 0.05 A 0.439 0.439 0 0 1 79.968 0.048 Q 80.851 0.048 82.231 0.711 A 13.56 13.56 0 0 1 82.632 0.912 A 13.987 13.987 0 0 1 84.716 2.236 A 12.199 12.199 0 0 1 85.536 2.928 A 7.11 7.11 0 0 1 86.067 3.469 Q 86.579 4.055 86.726 4.557 A 1.382 1.382 0 0 1 86.784 4.944 Q 86.784 6.096 86.376 7.176 Q 85.987 8.207 85.226 9.828 A 77.076 77.076 0 0 1 85.152 9.984 Q 84.522 11.205 84.215 11.974 A 8.286 8.286 0 0 0 84.096 12.288 A 43.246 43.246 0 0 0 83.514 14.274 Q 82.953 16.354 82.35 19.206 A 152.845 152.845 0 0 0 82.152 20.16 Q 81.12 25.2 80.448 29.904 A 45.097 45.097 0 0 0 81.342 29.445 Q 82.193 28.995 82.768 28.635 A 12.227 12.227 0 0 0 82.848 28.584 Q 83.442 28.205 84.172 27.632 A 29.842 29.842 0 0 0 84.864 27.072 Q 86.506 27.632 87.495 28.525 A 4.81 4.81 0 0 1 88.008 29.064 Q 89.04 30.336 89.04 31.968 Q 89.04 33.024 87.669 34.141 A 8.31 8.31 0 0 1 87.408 34.344 A 13.461 13.461 0 0 1 85.25 35.654 A 17.278 17.278 0 0 1 83.52 36.384 A 17.488 17.488 0 0 1 82.048 36.849 Q 80.72 37.2 79.68 37.2 A 5.504 5.504 0 0 1 78.354 37.028 Q 77.778 36.884 77.157 36.623 A 10.741 10.741 0 0 1 76.584 36.36 Q 74.88 35.52 73.68 34.392 A 7.121 7.121 0 0 1 73.169 33.864 Q 72.48 33.066 72.48 32.448 Q 72.48 31.684 73.068 28.819 A 120.087 120.087 0 0 1 73.152 28.416 Q 73.824 25.2 74.016 24.288 Q 75.2 18.841 75.735 16.152 A 106.862 106.862 0 0 0 75.936 15.12 Z M 10.224 19.728 L 10.8 20.016 Q 11.904 18.24 13.224 15.768 A 725.522 725.522 0 0 0 13.683 14.908 Q 14.526 13.324 14.791 12.802 A 14.966 14.966 0 0 0 14.832 12.72 L 15.744 10.992 A 15.494 15.494 0 0 1 16.193 10.985 Q 19.169 10.985 20.688 12.192 Q 22.32 13.488 22.32 15.648 Q 22.32 17.76 20.928 19.872 Q 17.472 21.024 15.048 22.152 Q 12.624 23.28 10.176 24.816 Q 10.072 28.651 9.683 31.553 A 35.1 35.1 0 0 1 9.336 33.672 A 14.934 14.934 0 0 1 9.052 34.871 Q 8.388 37.2 7.296 37.2 A 4.705 4.705 0 0 1 6.028 37.015 Q 5.28 36.806 4.464 36.36 A 11.766 11.766 0 0 1 2.634 35.133 A 10.129 10.129 0 0 1 1.824 34.392 A 7.26 7.26 0 0 1 1.354 33.867 Q 0.92 33.326 0.783 32.883 A 1.314 1.314 0 0 1 0.72 32.496 Q 0.72 31.623 1.071 30.246 A 19.274 19.274 0 0 1 1.104 30.12 Q 1.448 28.81 2.098 26.79 A 128.659 128.659 0 0 1 2.256 26.304 Q 2.844 24.43 3.207 23.132 A 47.491 47.491 0 0 0 3.408 22.392 Q 3.792 20.928 3.792 20.016 Q 3.792 19.632 3.36 19.2 Q 3.029 18.869 2.417 18.37 A 31.799 31.799 0 0 0 2.016 18.048 Q 0.96 17.184 0.48 16.704 A 2.164 2.164 0 0 1 0.232 16.412 Q 0.111 16.237 0.053 16.062 A 1.006 1.006 0 0 1 0 15.744 A 2.657 2.657 0 0 1 0.135 14.942 Q 0.36 14.233 0.96 13.392 Q 1.92 12.048 3.216 11.088 A 7.617 7.617 0 0 1 3.896 10.635 Q 4.629 10.205 5.217 10.14 A 1.867 1.867 0 0 1 5.424 10.128 Q 6.432 10.128 7.728 11.04 Q 9.024 11.952 9.984 13.128 Q 10.907 14.259 10.943 14.879 A 0.855 0.855 0 0 1 10.944 14.928 A 12.296 12.296 0 0 1 10.874 16.181 Q 10.74 17.483 10.349 19.194 A 41.241 41.241 0 0 1 10.224 19.728 Z M 192.72 16.224 A 2.836 2.836 0 0 0 191.143 16.725 Q 190.686 17.025 190.248 17.505 A 7.797 7.797 0 0 0 189.576 18.36 A 16.387 16.387 0 0 0 188.304 20.595 Q 187.64 21.992 187.104 23.688 A 33.407 33.407 0 0 0 185.939 28.602 A 29.789 29.789 0 0 0 185.76 29.952 A 19.581 19.581 0 0 0 190.012 27.564 A 16.133 16.133 0 0 0 192.96 24.72 A 15.087 15.087 0 0 0 194.779 21.878 A 10.984 10.984 0 0 0 195.888 17.808 A 5.016 5.016 0 0 0 195.1 17.122 A 6.554 6.554 0 0 0 194.424 16.704 Q 193.544 16.228 192.735 16.224 A 2.786 2.786 0 0 0 192.72 16.224 Z M 194.736 37.344 Q 186.576 43.728 186.576 46.464 A 2 2 0 0 0 187.152 47.873 A 2.887 2.887 0 0 0 187.416 48.12 A 5.582 5.582 0 0 0 188.403 48.768 Q 188.924 49.039 189.552 49.248 A 12.56 12.56 0 0 0 190.682 47.685 Q 191.48 46.398 192.192 44.688 A 52.801 52.801 0 0 0 193.093 42.359 Q 193.489 41.264 193.9 40.01 A 115.789 115.789 0 0 0 194.736 37.344 Z M 31.536 23.376 Q 34.464 22.32 36.432 20.688 A 11.573 11.573 0 0 0 37.199 19.997 Q 37.945 19.256 38.227 18.628 A 1.768 1.768 0 0 0 38.4 17.904 Q 38.4 16.726 36.962 16.212 A 4.916 4.916 0 0 0 36.528 16.08 Q 34.704 17.424 33.432 19.296 Q 32.16 21.168 31.536 23.376 Z M 162.672 23.376 Q 165.6 22.32 167.568 20.688 A 11.573 11.573 0 0 0 168.335 19.997 Q 169.081 19.256 169.363 18.628 A 1.768 1.768 0 0 0 169.536 17.904 Q 169.536 16.726 168.098 16.212 A 4.916 4.916 0 0 0 167.664 16.08 Q 165.84 17.424 164.568 19.296 Q 163.296 21.168 162.672 23.376 Z M 213.888 23.376 Q 216.816 22.32 218.784 20.688 A 11.573 11.573 0 0 0 219.551 19.997 Q 220.297 19.256 220.579 18.628 A 1.768 1.768 0 0 0 220.752 17.904 Q 220.752 16.726 219.314 16.212 A 4.916 4.916 0 0 0 218.88 16.08 Q 217.056 17.424 215.784 19.296 Q 214.512 21.168 213.888 23.376 Z M 238.848 23.376 Q 241.776 22.32 243.744 20.688 A 11.573 11.573 0 0 0 244.511 19.997 Q 245.257 19.256 245.539 18.628 A 1.768 1.768 0 0 0 245.712 17.904 Q 245.712 16.726 244.274 16.212 A 4.916 4.916 0 0 0 243.84 16.08 Q 242.016 17.424 240.744 19.296 Q 239.472 21.168 238.848 23.376 Z" vector-effect="non-scaling-stroke"/></g></svg>